<?xml version="1.0" encoding="UTF-8" standalone="no"?>
<!DOCTYPE svg PUBLIC "-//W3C//DTD SVG 1.1//EN" "http://www.w3.org/Graphics/SVG/1.1/DTD/svg11.dtd">
<svg width="100%" height="100%" viewBox="0 0 487 434" version="1.1" xmlns="http://www.w3.org/2000/svg" xmlns:xlink="http://www.w3.org/1999/xlink" xml:space="preserve" xmlns:serif="http://www.serif.com/" style="fill-rule:evenodd;clip-rule:evenodd;stroke-linecap:round;stroke-linejoin:round;stroke-miterlimit:1.5;">
    <g id="v3" transform="matrix(0.48808,0,-1.98326e-32,0.510427,-951.866,-2290.43)">
        <g id="sus_cap" transform="matrix(0.365427,-0.636901,0.632939,0.367715,1864.8,5322.88)">
            <path d="M337.293,586.183L367.775,533.387L432.354,500.278L428.738,427.796L459.22,375L520.183,375L581.147,414.372L642.11,375L703.073,375L733.555,427.796L729.939,500.278L794.518,533.387L825,586.183L703.073,797.366L459.22,797.366L428.738,744.571L432.354,672.089L367.775,638.979L337.293,586.183Z" style="fill:white;stroke:rgb(106,140,200);stroke-width:32.59px;"/>
        </g>
        <g transform="matrix(0.365427,0.636901,-0.632939,0.367715,2748.76,3616.7)">
            <path d="M1500,1200L1743.88,1200" style="fill:none;stroke:rgb(202,77,77);stroke-width:31.18px;"/>
        </g>
        <g transform="matrix(-0.365427,0.636901,-0.632939,-0.367715,3933.53,4655.46)">
            <path d="M1500,1200L1743.88,1200" style="fill:none;stroke:rgb(202,77,77);stroke-width:32.59px;"/>
        </g>
        <g id="sus_rna" transform="matrix(0.103402,0,0,0.104049,2287.96,5027.83)">
            <path d="M600,1500C666.667,1400 800,1200 900,1200C1000,1200 1100,1500 1200,1500C1300,1500 1400,1200 1500,1200C1600,1200 1700,1500 1800,1500C1900,1500 2000,1200 2100,1200C2200,1200 2300,1500 2400,1500C2500,1500 2633.33,1300 2700,1200" style="fill:none;stroke:rgb(106,140,200);stroke-width:225.2px;"/>
        </g>
    </g>
    <g transform="matrix(1,0,0,1,105.137,7.54952e-14)">
        <g id="sus_cap1" serif:id="sus_cap" transform="matrix(0.180432,-0.312517,0.312517,0.180432,-149.133,157.894)">
            <path d="M337.293,586.183L367.775,533.387L432.354,500.278L428.738,427.796L459.22,375L520.183,375L581.147,414.372L642.11,375L703.073,375L733.555,427.796L729.939,500.278L794.518,533.387L825,586.183L794.518,638.979L729.939,672.089L733.555,744.571L703.073,797.366L642.11,797.366L581.147,757.994L520.183,797.366L459.22,797.366L428.738,744.571L432.354,672.089L367.775,638.979L337.293,586.183Z" style="fill:white;stroke:rgb(106,140,200);stroke-width:32.33px;"/>
        </g>
        <g id="sus_rna1" serif:id="sus_rna" transform="matrix(0.0516421,0,0,0.0516421,53.7075,12.325)">
            <path d="M600,1500C666.667,1400 800,1200 900,1200C1000,1200 1100,1500 1200,1500C1300,1500 1400,1200 1500,1200C1600,1200 1700,1500 1800,1500C1900,1500 2000,1200 2100,1200C2200,1200 2300,1500 2400,1500C2500,1500 2633.33,1300 2700,1200" style="fill:none;stroke:rgb(106,140,200);stroke-width:225.91px;"/>
        </g>
    </g>
    <g transform="matrix(1,0,0,1,-1.42109e-14,-58.1097)">
        <g transform="matrix(0.36083,-2.67481e-17,2.67481e-17,0.36083,-491.412,-240.867)">
            <path d="M1865.82,1411.2L1743.88,1622.41L1500,1622.41L1378.06,1411.2L1500,1200L1743.88,1200L1865.82,1411.2Z" style="fill:white;stroke:rgb(202,77,77);stroke-width:32.33px;"/>
        </g>
        <g id="sus_rna2" serif:id="sus_rna" transform="matrix(0.0535287,0,0,0.0535287,5.50891,196.073)">
            <path d="M600,1500C666.667,1400 800,1200 900,1200C1000,1200 1100,1500 1200,1500C1300,1500 1400,1200 1500,1200C1600,1200 1700,1500 1800,1500C1900,1500 2000,1200 2100,1200C2200,1200 2300,1500 2400,1500C2500,1500 2633.33,1300 2700,1200" style="fill:none;stroke:rgb(202,77,77);stroke-width:217.95px;"/>
        </g>
    </g>
    <g id="v2" transform="matrix(0.48808,4.14742e-17,-3.96584e-17,0.510427,-1003.76,-2425.39)">
        <g id="sus_cap2" serif:id="sus_cap" transform="matrix(0.365427,-0.636901,0.632939,0.367715,2278.91,5324.15)">
            <path d="M825,586.183L794.518,638.979L729.939,672.089L733.555,744.571L703.073,797.366L642.11,797.366L581.147,757.994L520.183,797.366L459.22,797.366L337.293,586.183L367.775,533.387L432.354,500.278L428.738,427.796L459.22,375L520.183,375L581.147,414.372L642.11,375L703.073,375" style="fill:white;stroke:rgb(106,140,200);stroke-width:32.59px;"/>
        </g>
        <g transform="matrix(0.730855,8.16492e-17,-8.11412e-17,0.73543,1677.19,4131.77)">
            <path d="M1500,1200L1743.88,1200" style="fill:none;stroke:rgb(202,77,77);stroke-width:31.86px;"/>
        </g>
        <g transform="matrix(0.730855,8.16492e-17,-8.11412e-17,0.73543,1676.89,4442.36)">
            <path d="M1500,1200L1743.88,1200" style="fill:none;stroke:rgb(202,77,77);stroke-width:31.86px;"/>
        </g>
        <g id="sus_rna3" serif:id="sus_rna" transform="matrix(0.103402,1.27452e-33,-1.2825e-33,0.104049,2691.68,5029.1)">
            <path d="M600,1500C666.667,1400 800,1200 900,1200C1000,1200 1100,1500 1200,1500C1300,1500 1400,1200 1500,1200C1600,1200 1700,1500 1800,1500C1900,1500 2000,1200 2100,1200C2200,1200 2300,1500 2400,1500C2500,1500 2633.33,1300 2700,1200" style="fill:none;stroke:rgb(202,77,77);stroke-width:225.2px;"/>
        </g>
    </g>
</svg>
